<?xml version="1.0" encoding="UTF-8"?><svg id="Layer_1" xmlns="http://www.w3.org/2000/svg" xmlns:xlink="http://www.w3.org/1999/xlink" viewBox="0 0 420.78 120.81"><defs><style>.cls-1{fill:url(#linear-gradient-2);}.cls-2{clip-path:url(#clippath);}.cls-3{fill:#39a4ec;}.cls-4{fill:none;}.cls-5{fill:url(#linear-gradient);}</style><clipPath id="clippath"><path class="cls-4" d="M64.41,78.76h17.01V25.4h-17.01v53.36Zm98.42,0h17.01V25.4h-17.01v53.36ZM356.75,25.3l-10.2,16.58-10.31-16.58h-19.45l17.54,27.64-17.54,25.83h19.45l10.31-15.41,10.2,15.41h19.56l-17.64-25.83,17.64-27.64h-19.56Zm-82.37,26.79c0-8.29,6.27-13.82,13.18-13.82s12.86,5.53,12.86,13.82-6.27,13.82-12.86,13.82-13.18-5.42-13.18-13.82m-16.37,0c0,16.9,13.39,28.17,29.55,28.17s29.23-11.27,29.23-28.17-13.39-28.06-29.23-28.06-29.55,11.27-29.55,28.06m-150.34-2.55c0-7.12,5.31-12.12,12.75-12.12,6.8,0,12.44,5,12.44,12.12s-5.63,12.22-12.44,12.22c-7.44,0-12.75-5.1-12.75-12.22m-16.58,0c0,15.09,11.8,26.15,25.72,26.15,6.91,0,12.22-1.81,16.05-5.1v1.49c0,8.4-5.53,12.97-13.29,12.97-5.53,0-8.5-1.81-12.54-6.59l-14.14,7.65c5.21,8.61,14.56,12.86,26.79,12.86,17.33,0,29.87-9.03,29.87-25.51V25.4h-16.69v3.51c-3.83-3.3-9.14-5.1-16.05-5.1-13.92,0-25.72,10.95-25.72,25.72M0,7.55V78.76H17.54v-25.51H50.91v-15.31H17.54v-14.99H55.06V7.55H0ZM211.3,49h16.69c5,0,8.4,2.98,8.4,7.65s-3.08,7.97-8.72,7.97h-16.37v-15.63Zm0-27.32h15.94c4.46,0,7.97,2.87,7.97,7.33,0,4.78-3.4,7.97-8.61,7.97h-15.31v-15.31Zm-17.54-14.14V78.76h36.99c15.52,0,23.49-8.18,23.49-19.98,0-10.74-7.12-15.84-13.71-16.37v-.42c4.78-.53,11.69-5.21,11.69-14.99,0-11.69-8.5-19.45-21.58-19.45h-36.88ZM63.13,9.67c0,5.42,4.04,9.46,9.78,9.46s9.88-4.04,9.88-9.46S78.65,0,72.91,0s-9.78,4.46-9.78,9.67m98.42,0c0,5.42,4.04,9.46,9.78,9.46s9.88-4.04,9.88-9.46-4.14-9.67-9.88-9.67-9.78,4.46-9.78,9.67"/></clipPath><linearGradient id="linear-gradient" x1="5949.84" y1="348.19" x2="5951.36" y2="348.19" gradientTransform="translate(-2282383.76 133616.65) scale(383.6 -383.6)" gradientUnits="userSpaceOnUse"><stop offset="0" stop-color="#033084"/><stop offset="1" stop-color="#39a4ec"/></linearGradient><linearGradient id="linear-gradient-2" x1="211.3" y1="102.66" x2="312.45" y2="102.66" gradientTransform="matrix(1, 0, 0, 1, 0, 0)" xlink:href="#linear-gradient"/></defs><g class="cls-2"><rect class="cls-5" x="0" width="523.45" height="98.96"/></g><path class="cls-1" d="M232.56,96.03l-1.71,1.31c-.95-1.23-2.08-2.17-3.41-2.8-1.33-.64-2.78-.95-4.37-.95-1.73,0-3.34,.42-4.82,1.25-1.48,.83-2.62,1.95-3.44,3.35-.81,1.4-1.22,2.98-1.22,4.74,0,2.65,.91,4.86,2.73,6.64,1.82,1.77,4.11,2.66,6.88,2.66,3.04,0,5.59-1.19,7.64-3.58l1.71,1.3c-1.08,1.38-2.44,2.45-4.06,3.2-1.62,.75-3.43,1.13-5.43,1.13-3.8,0-6.8-1.27-9-3.8-1.84-2.14-2.77-4.72-2.77-7.75,0-3.18,1.12-5.86,3.35-8.04,2.23-2.17,5.03-3.26,8.39-3.26,2.03,0,3.86,.4,5.5,1.2,1.64,.8,2.98,1.93,4.02,3.38Zm10.87,1.21c2.48,0,4.53,.9,6.16,2.69,1.48,1.64,2.22,3.57,2.22,5.81s-.78,4.21-2.35,5.89c-1.57,1.68-3.58,2.52-6.04,2.52s-4.48-.84-6.05-2.52c-1.57-1.68-2.35-3.64-2.35-5.89s.74-4.16,2.22-5.79c1.63-1.8,3.69-2.71,6.17-2.71Zm0,2.03c-1.72,0-3.2,.64-4.44,1.91-1.24,1.27-1.85,2.81-1.85,4.61,0,1.16,.28,2.25,.85,3.25,.56,1,1.33,1.78,2.28,2.33s2.01,.82,3.16,.82,2.2-.27,3.16-.82c.96-.55,1.72-1.32,2.28-2.33,.56-1.01,.85-2.09,.85-3.25,0-1.8-.62-3.34-1.86-4.61-1.24-1.27-2.72-1.91-4.43-1.91Zm11.19-1.61h2.07v7.51c0,1.83,.1,3.09,.3,3.78,.3,.99,.86,1.76,1.69,2.33,.83,.57,1.83,.86,2.98,.86s2.13-.28,2.94-.83,1.36-1.29,1.67-2.2c.21-.62,.31-1.94,.31-3.95v-7.51h2.11v7.89c0,2.22-.26,3.89-.78,5.01-.52,1.12-1.3,2-2.33,2.64-1.04,.64-2.34,.95-3.91,.95s-2.87-.32-3.92-.95c-1.05-.64-1.83-1.52-2.35-2.66-.52-1.14-.78-2.85-.78-5.14v-7.75Zm17.13,0h2.11v2.35c.63-.93,1.29-1.62,2-2.08,.7-.46,1.43-.69,2.19-.69,.57,0,1.18,.18,1.83,.55l-1.08,1.74c-.43-.19-.8-.28-1.09-.28-.69,0-1.36,.28-2,.85s-1.13,1.45-1.46,2.64c-.26,.92-.38,2.77-.38,5.56v5.44h-2.11v-16.08Zm9.85-6.62c.47,0,.87,.17,1.21,.5,.33,.34,.5,.74,.5,1.21s-.17,.86-.5,1.2-.74,.5-1.21,.5-.86-.17-1.19-.5c-.33-.34-.5-.73-.5-1.2s.17-.88,.5-1.21c.33-.33,.73-.5,1.19-.5Zm-1.03,6.62h2.07v16.08h-2.07v-16.08Zm19.16,10.75l1.74,.92c-.57,1.12-1.23,2.03-1.98,2.72-.75,.69-1.59,1.22-2.53,1.58-.94,.36-2,.54-3.18,.54-2.62,0-4.68-.86-6.15-2.58s-2.22-3.66-2.22-5.83c0-2.04,.63-3.86,1.88-5.45,1.59-2.03,3.71-3.05,6.38-3.05s4.93,1.04,6.57,3.12c1.16,1.47,1.76,3.3,1.78,5.5h-14.47c.04,1.87,.64,3.4,1.79,4.59,1.15,1.19,2.58,1.79,4.28,1.79,.82,0,1.61-.14,2.39-.43,.77-.28,1.43-.66,1.98-1.13,.54-.47,1.13-1.23,1.76-2.28Zm0-4.33c-.28-1.1-.68-1.99-1.21-2.65-.53-.66-1.23-1.19-2.09-1.6-.87-.4-1.78-.61-2.74-.61-1.58,0-2.93,.51-4.07,1.52-.83,.74-1.46,1.85-1.88,3.33h11.99Zm4.59-6.42h2.11v2.35c.63-.93,1.29-1.62,2-2.08,.7-.46,1.43-.69,2.19-.69,.57,0,1.18,.18,1.83,.55l-1.08,1.74c-.43-.19-.8-.28-1.09-.28-.69,0-1.36,.28-2,.85-.64,.57-1.13,1.45-1.46,2.64-.26,.92-.38,2.77-.38,5.56v5.44h-2.11v-16.08Z"/><path class="cls-3" d="M420.78,53.11c0-7.29-5.91-13.2-13.2-13.2s-13.2,5.91-13.2,13.2c0,4.31,2.08,8.13,5.28,10.54-2.03,7.22-4.94,14-12.63,21.62-10.6,10.5-27.03,16.69-44.34,17.27-1.99-4.77-6.69-8.13-12.19-8.13-7.29,0-13.2,5.91-13.2,13.2s5.91,13.2,13.2,13.2c5.15,0,9.6-2.95,11.77-7.25,20.33-.54,39.83-7.91,52.5-20.46,9.78-9.68,13.33-18.56,15.67-27.1,5.91-1.31,10.34-6.57,10.34-12.88Z"/></svg>